<svg xmlns="http://www.w3.org/2000/svg" viewBox="0 0 577.901 577.901" fill="#21d4f4">
	<path d="M400.43,0H307.86l0.17,54.888c13.567,6.973,22.956,20.949,22.956,37.258v61.671c0,16.141-9.195,29.992-22.55,37.04
		l0.254,85.458c0.029,10.657-8.584,19.325-19.243,19.353c-0.018,0-0.037,0-0.055,0c-10.628,0-19.27-8.604-19.296-19.243
		l-0.255-85.37c-13.56-6.971-22.936-20.947-22.936-37.249V92.133c0-16.13,9.188-29.982,22.53-37.03L269.264,0H177.47
		c-49.525,0-89.668,40.141-89.668,89.668v287.085c0,111.095,90.054,201.148,201.148,201.148
		c111.096,0,201.15-90.055,201.15-201.148V89.666C490.1,40.141,449.957,0,400.43,0z"/>
</svg>
