<svg width="402" height="578" xmlns="http://www.w3.org/2000/svg" fill="#21d4f4">
    <g>
    <path d="m312.628,0l-92.57,0l0.17,54.888c13.567,6.973 22.956,20.949 22.956,37.258l0,61.671c0,16.141 -9.195,29.992 -22.55,37.04l0.254,85.458c0.029,10.657 -8.584,19.325 -19.243,19.353c-0.018,0 -0.037,0 -0.055,0c-10.628,0 -19.27,-8.604 -19.296,-19.243l-0.255,-85.37c-13.56,-6.971 -22.936,-20.947 -22.936,-37.249l0,-61.673c0,-16.13 9.188,-29.982 22.53,-37.03l-0.171,-55.103l-91.794,0c-49.525,0 -89.668,40.141 -89.668,89.668l0,287.085c0,111.095 90.054,201.148 201.148,201.148c111.096,0 201.15,-90.055 201.15,-201.148l0,-287.087c0,-49.525 -40.143,-89.666 -89.67,-89.666z"/>
    </g>
</svg>